<?xml version="1.0" encoding="UTF-8"?><svg id="Laag_2" xmlns="http://www.w3.org/2000/svg" viewBox="0 0 807.57 295.88"><defs><style>.cls-1{fill:#00627b;stroke-width:0px;}</style></defs><g id="Laag_1-2"><path class="cls-1" d="M785.98,11.09c12,0,21.59,9.78,21.59,21.8s-9.59,21.88-21.67,21.88-21.8-9.68-21.8-21.88,9.78-21.8,21.8-21.8h.07ZM785.81,15.44c-9.11,0-16.44,7.85-16.44,17.54s7.33,17.43,16.54,17.43c9.18.1,16.62-7.65,16.62-17.43s-7.44-17.54-16.62-17.54h-.1ZM782.12,45.58h-5.14v-24.21c1.94-.3,4.06-.68,7.73-.68,4.18,0,6.68.68,8.34,1.93,1.36,1.08,2.13,2.72,2.13,5.24,0,2.92-2.04,4.94-4.66,5.62v.19c2.13.4,3.48,2.32,3.88,5.91.47,3.79.96,5.24,1.34,6.01h-5.31c-.58-.88-.97-3.01-1.46-6.3-.38-2.62-1.93-3.68-4.54-3.68h-2.32v9.98ZM782.12,31.63h2.42c3,0,5.32-.98,5.32-3.5,0-2.03-1.46-3.58-4.95-3.58-1.25,0-2.13,0-2.79.1v6.98Z"/><path class="cls-1" d="M118.1,58.63h39.67l8.55,56.62h.41l26.46-56.62h27.47l7.75,56.62h.4l26.45-56.62h28.28l-55.34,113.23h-27.46l-9.39-55.34h-.39l-25.84,55.34h-28.29l-18.72-113.23Z"/><path class="cls-1" d="M319.42,122.69c-1.51,16.18,8.35,26.19,22.81,26.19,9.55,0,20.53-6.39,26.14-16.6l24.13,11.92c-15.08,20.21-34.17,30.65-59.99,30.65-34.01,0-55.79-21.91-52.3-59.59,3.21-34.7,27.89-59.59,63.29-59.59,32.18,0,55.38,19.58,51.3,63.85l-.31,3.18h-75.07ZM356.64,100.99c1.49-11.92-2.87-21.92-13.87-21.92-13.03,0-18.59,9.58-19.93,21.92h33.79Z"/><path class="cls-1" d="M421.77,58.63h38.27l-2.56,16.18c10.89-9.79,24.18-19.15,38.23-19.15,10.38,0,30.16,6.17,25.72,34.25l-12.96,81.94h-38.24l11.35-71.72c1.26-8.09.76-16.39-9.02-16.39-5.69,0-11.75,4.9-18.1,10.22l-12.32,77.9h-38.27l17.91-113.23Z"/><path class="cls-1" d="M608.43,98.43c.81-8.93-.81-16.8-11.6-16.8-8.15,0-17.02,7.23-21.18,33.63-3.95,24.89.77,33.63,14.41,33.63,12.41,0,18.51-8.94,23.38-19.16l26.68,5.11c-13.3,24.9-31.56,40.01-58.42,40.01-32.16,0-51.9-21.91-45.94-59.59,5.49-34.7,31.81-59.59,64.36-59.59,26.46,0,40.94,14.04,43.27,40.43l-34.96,2.34Z"/><path class="cls-1" d="M694.53,122.69c-2.55,16.18,6.66,26.19,21.11,26.19,9.56,0,20.96-6.39,27.25-16.6l23.35,11.92c-16.43,20.21-36.2,30.65-62.03,30.65-33.98,0-54.34-21.91-48.38-59.59,5.49-34.7,31.8-59.59,67.21-59.59,32.17,0,54.09,19.58,47.1,63.85l-.51,3.18h-75.1ZM733.16,100.99c2.29-11.92-1.41-21.92-12.41-21.92-13,0-19.2,9.58-21.35,21.92h33.76Z"/><path class="cls-1" d="M133.56,39.83c9.98-15.12,13.28-21.81,24.84-39.83H10.12L0,39.16h49.9l-24.97,131.34c29-29.03,42.16-43.8,64.58-70.89l9.63-59.78h34.42Z"/><path class="cls-1" d="M22.52,286.03c-2.16,0-4.01-.28-5.56-.83-1.55-.56-2.83-1.27-3.85-2.13-1.01-.87-1.82-1.79-2.43-2.77-.6-.98-1.05-1.9-1.35-2.77-.29-.87-.54-1.85-.73-2.96h5.83c.2.88.44,1.64.73,2.28.29.64.74,1.27,1.35,1.91.6.64,1.4,1.18,2.4,1.62,1,.44,2.26.66,3.8.66,2.29,0,4.08-.54,5.37-1.62,1.29-1.08,1.94-2.45,1.94-4.12,0-1.44-.48-2.56-1.45-3.36-.96-.8-2.38-1.41-4.24-1.84l-4.8-1.13c-1.8-.39-3.46-.97-4.97-1.74-1.52-.77-2.74-1.8-3.67-3.11-.93-1.31-1.4-2.96-1.4-4.95,0-2.16.53-4.01,1.59-5.56,1.06-1.55,2.53-2.74,4.41-3.58s4.03-1.25,6.44-1.25,4.3.35,5.83,1.05,2.76,1.56,3.68,2.57c.91,1.01,1.59,2.03,2.03,3.06s.79,2.25,1.05,3.65h-5.59c-.26-1.08-.63-1.98-1.1-2.7-.47-.72-1.19-1.35-2.16-1.89-.96-.54-2.26-.81-3.9-.81-2.25,0-3.94.52-5.05,1.57-1.11,1.05-1.67,2.21-1.67,3.48s.47,2.23,1.42,2.96c.95.73,2.22,1.28,3.82,1.64l5.14,1.23c1.89.42,3.62,1.06,5.17,1.91,1.55.85,2.78,1.97,3.7,3.36.91,1.39,1.37,3.08,1.37,5.07s-.5,3.88-1.49,5.56c-1,1.68-2.47,3.02-4.43,4.02-1.96,1-4.38,1.5-7.25,1.5Z"/><path class="cls-1" d="M51.96,259.08c1.63,0,3,.26,4.09.78,1.09.52,1.97,1.13,2.62,1.81.65.69,1.13,1.27,1.42,1.76h.29v-3.87h5.59v25.97h-5.59v-3.87h-.29c-.29.49-.77,1.08-1.42,1.76-.65.69-1.53,1.29-2.62,1.81-1.1.52-2.46.78-4.09.78-1.96,0-3.67-.38-5.12-1.15-1.45-.77-2.67-1.8-3.65-3.09-.98-1.29-1.71-2.74-2.18-4.34-.47-1.6-.71-3.23-.71-4.9s.24-3.3.71-4.9c.47-1.6,1.2-3.05,2.18-4.34.98-1.29,2.2-2.32,3.65-3.09,1.45-.77,3.16-1.15,5.12-1.15ZM53.18,263.74c-1.6,0-2.94.43-4.02,1.3-1.08.87-1.89,1.97-2.43,3.31-.54,1.34-.81,2.74-.81,4.21s.27,2.88.81,4.21c.54,1.34,1.35,2.44,2.43,3.31,1.08.87,2.42,1.3,4.02,1.3s2.93-.43,3.99-1.3c1.06-.87,1.86-1.97,2.4-3.31.54-1.34.81-2.74.81-4.21s-.27-2.87-.81-4.21c-.54-1.34-1.34-2.44-2.4-3.31-1.06-.87-2.39-1.3-3.99-1.3Z"/><path class="cls-1" d="M72.78,285.54v-25.97h5.59v3.67h.2c.29-.52.73-1.11,1.3-1.76.57-.65,1.33-1.22,2.28-1.69s2.14-.71,3.58-.71c1.93,0,3.53.46,4.8,1.37,1.27.92,2.22,2.12,2.84,3.63h.1c.69-1.31,1.68-2.47,2.99-3.48,1.31-1.01,3.04-1.52,5.19-1.52,1.83,0,3.38.43,4.66,1.3s2.23,2.03,2.87,3.48c.64,1.45.96,3.1.96,4.92v16.76h-5.59v-15.97c0-1.7-.41-3.09-1.23-4.17s-2.03-1.62-3.63-1.62c-1.31,0-2.36.36-3.16,1.08-.8.72-1.38,1.61-1.74,2.67-.36,1.06-.54,2.13-.54,3.21v14.8h-5.59v-15.97c0-1.7-.41-3.09-1.23-4.17s-2.03-1.62-3.63-1.62c-1.31,0-2.36.36-3.16,1.08-.8.72-1.38,1.61-1.74,2.67-.36,1.06-.54,2.13-.54,3.21v14.8h-5.59Z"/><path class="cls-1" d="M128.54,286.03c-2.19,0-4.08-.38-5.66-1.15-1.58-.77-2.89-1.8-3.92-3.09-1.03-1.29-1.8-2.74-2.3-4.34-.51-1.6-.76-3.23-.76-4.9s.25-3.25.74-4.85c.49-1.6,1.24-3.05,2.25-4.36,1.01-1.31,2.3-2.34,3.87-3.11,1.57-.77,3.41-1.15,5.54-1.15,2.29,0,4.3.51,6.05,1.54,1.75,1.03,3.12,2.55,4.12,4.56,1,2.01,1.49,4.5,1.49,7.47v1.52h-18.42c.13,1.99.8,3.71,2.01,5.15,1.21,1.44,2.88,2.16,5,2.16,1.21,0,2.21-.2,2.99-.61.78-.41,1.39-.87,1.81-1.4.42-.52.82-1.18,1.18-1.96h5.19c-.33,1.14-.71,2.14-1.15,2.99-.44.85-1.07,1.7-1.89,2.55-.82.85-1.9,1.56-3.23,2.13-1.34.57-2.97.86-4.9.86ZM121.58,270.25h12.99c-.13-2.29-.81-3.97-2.03-5.05-1.23-1.08-2.65-1.62-4.29-1.62-1.83,0-3.35.6-4.56,1.79-1.21,1.19-1.91,2.82-2.11,4.88Z"/><path class="cls-1" d="M145.91,285.54v-25.97h5.59v3.77h.29c.23-.46.62-1.02,1.18-1.69.55-.67,1.33-1.27,2.33-1.79s2.26-.78,3.8-.78c1.93,0,3.54.44,4.85,1.32s2.29,2.06,2.96,3.53c.67,1.47,1,3.09,1,4.85v16.76h-5.59v-16.17c0-1.57-.43-2.89-1.3-3.97-.87-1.08-2.15-1.62-3.85-1.62-1.34,0-2.43.33-3.26,1-.83.67-1.45,1.54-1.84,2.6-.39,1.06-.59,2.2-.59,3.41v14.75h-5.59Z"/><path class="cls-1" d="M185.65,285.54v-25.97h5.59v3.77h.29c.23-.46.62-1.02,1.18-1.69.55-.67,1.33-1.27,2.33-1.79s2.26-.78,3.8-.78c1.93,0,3.54.44,4.85,1.32s2.29,2.06,2.96,3.53c.67,1.47,1,3.09,1,4.85v16.76h-5.59v-16.17c0-1.57-.43-2.89-1.3-3.97-.87-1.08-2.15-1.62-3.85-1.62-1.34,0-2.43.33-3.26,1-.83.67-1.45,1.54-1.84,2.6-.39,1.06-.59,2.2-.59,3.41v14.75h-5.59Z"/><path class="cls-1" d="M225.18,259.08c1.63,0,3,.26,4.09.78,1.09.52,1.97,1.13,2.62,1.81.65.69,1.13,1.27,1.42,1.76h.29v-3.87h5.59v25.97h-5.59v-3.87h-.29c-.29.49-.77,1.08-1.42,1.76-.65.69-1.53,1.29-2.62,1.81-1.1.52-2.46.78-4.09.78-1.96,0-3.67-.38-5.12-1.15-1.45-.77-2.67-1.8-3.65-3.09-.98-1.29-1.71-2.74-2.18-4.34-.47-1.6-.71-3.23-.71-4.9s.24-3.3.71-4.9c.47-1.6,1.2-3.05,2.18-4.34.98-1.29,2.2-2.32,3.65-3.09,1.45-.77,3.16-1.15,5.12-1.15ZM226.41,263.74c-1.6,0-2.94.43-4.02,1.3-1.08.87-1.89,1.97-2.43,3.31-.54,1.34-.81,2.74-.81,4.21s.27,2.88.81,4.21c.54,1.34,1.35,2.44,2.43,3.31,1.08.87,2.42,1.3,4.02,1.3s2.93-.43,3.99-1.3c1.06-.87,1.86-1.97,2.4-3.31.54-1.34.81-2.74.81-4.21s-.27-2.87-.81-4.21c-.54-1.34-1.34-2.44-2.4-3.31-1.06-.87-2.39-1.3-3.99-1.3Z"/><path class="cls-1" d="M256.79,259.08c1.63,0,3,.26,4.09.78,1.09.52,1.97,1.13,2.62,1.81.65.69,1.13,1.27,1.42,1.76h.29v-3.87h5.59v25.97h-5.59v-3.87h-.29c-.29.49-.77,1.08-1.42,1.76-.65.69-1.53,1.29-2.62,1.81-1.1.52-2.46.78-4.09.78-1.96,0-3.67-.38-5.12-1.15-1.45-.77-2.67-1.8-3.65-3.09-.98-1.29-1.71-2.74-2.18-4.34-.47-1.6-.71-3.23-.71-4.9s.24-3.3.71-4.9c.47-1.6,1.2-3.05,2.18-4.34.98-1.29,2.2-2.32,3.65-3.09,1.45-.77,3.16-1.15,5.12-1.15ZM258.02,263.74c-1.6,0-2.94.43-4.02,1.3-1.08.87-1.89,1.97-2.43,3.31-.54,1.34-.81,2.74-.81,4.21s.27,2.88.81,4.21c.54,1.34,1.35,2.44,2.43,3.31,1.08.87,2.42,1.3,4.02,1.3s2.93-.43,3.99-1.3c1.06-.87,1.86-1.97,2.4-3.31.54-1.34.81-2.74.81-4.21s-.27-2.87-.81-4.21c-.54-1.34-1.34-2.44-2.4-3.31-1.06-.87-2.39-1.3-3.99-1.3Z"/><path class="cls-1" d="M277.61,285.54v-25.97h5.59v3.43h.2c.49-1.01,1.27-1.92,2.33-2.72,1.06-.8,2.6-1.2,4.63-1.2.62,0,1.37.07,2.25.2v5.39c-.98-.13-1.78-.2-2.4-.2-2.29,0-4.03.65-5.22,1.94-1.19,1.29-1.79,3.37-1.79,6.25v12.89h-5.59Z"/><path class="cls-1" d="M320.88,286.03c-2.19,0-4.08-.38-5.66-1.15-1.58-.77-2.89-1.8-3.92-3.09-1.03-1.29-1.8-2.74-2.3-4.34-.51-1.6-.76-3.23-.76-4.9s.25-3.25.74-4.85c.49-1.6,1.24-3.05,2.25-4.36,1.01-1.31,2.3-2.34,3.87-3.11,1.57-.77,3.41-1.15,5.54-1.15,2.29,0,4.3.51,6.05,1.54,1.75,1.03,3.12,2.55,4.12,4.56,1,2.01,1.49,4.5,1.49,7.47v1.52h-18.42c.13,1.99.8,3.71,2.01,5.15,1.21,1.44,2.88,2.16,5,2.16,1.21,0,2.21-.2,2.99-.61.78-.41,1.39-.87,1.81-1.4.42-.52.82-1.18,1.18-1.96h5.19c-.33,1.14-.71,2.14-1.15,2.99-.44.85-1.07,1.7-1.89,2.55-.82.85-1.9,1.56-3.23,2.13-1.34.57-2.97.86-4.9.86ZM313.92,270.25h12.99c-.13-2.29-.81-3.97-2.03-5.05-1.23-1.08-2.65-1.62-4.29-1.62-1.83,0-3.35.6-4.56,1.79-1.21,1.19-1.91,2.82-2.11,4.88Z"/><path class="cls-1" d="M349.98,286.03c-2.19,0-4.08-.38-5.66-1.15-1.58-.77-2.89-1.8-3.92-3.09-1.03-1.29-1.8-2.74-2.3-4.34-.51-1.6-.76-3.23-.76-4.9s.25-3.25.74-4.85c.49-1.6,1.24-3.05,2.25-4.36,1.01-1.31,2.3-2.34,3.87-3.11,1.57-.77,3.41-1.15,5.54-1.15,2.29,0,4.3.51,6.05,1.54,1.75,1.03,3.12,2.55,4.12,4.56,1,2.01,1.49,4.5,1.49,7.47v1.52h-18.42c.13,1.99.8,3.71,2.01,5.15,1.21,1.44,2.88,2.16,5,2.16,1.21,0,2.21-.2,2.99-.61.78-.41,1.39-.87,1.81-1.4.42-.52.82-1.18,1.18-1.96h5.19c-.33,1.14-.71,2.14-1.15,2.99-.44.85-1.07,1.7-1.89,2.55-.82.85-1.9,1.56-3.23,2.13-1.34.57-2.97.86-4.9.86ZM343.02,270.25h12.99c-.13-2.29-.81-3.97-2.03-5.05-1.23-1.08-2.65-1.62-4.29-1.62-1.83,0-3.35.6-4.56,1.79-1.21,1.19-1.91,2.82-2.11,4.88Z"/><path class="cls-1" d="M367.36,285.54v-25.97h5.59v3.77h.29c.23-.46.62-1.02,1.18-1.69.55-.67,1.33-1.27,2.33-1.79s2.26-.78,3.8-.78c1.93,0,3.54.44,4.85,1.32s2.29,2.06,2.96,3.53c.67,1.47,1,3.09,1,4.85v16.76h-5.59v-16.17c0-1.57-.43-2.89-1.3-3.97-.87-1.08-2.15-1.62-3.85-1.62-1.34,0-2.43.33-3.26,1-.83.67-1.45,1.54-1.84,2.6-.39,1.06-.59,2.2-.59,3.41v14.75h-5.59Z"/><path class="cls-1" d="M418.31,286.03c-1.96,0-3.67-.38-5.12-1.15-1.45-.77-2.67-1.8-3.65-3.09-.98-1.29-1.71-2.74-2.18-4.34-.47-1.6-.71-3.23-.71-4.9s.24-3.3.71-4.9c.47-1.6,1.2-3.05,2.18-4.34.98-1.29,2.2-2.32,3.65-3.09,1.45-.77,3.16-1.15,5.12-1.15,1.63,0,3,.26,4.09.78,1.09.52,1.97,1.13,2.62,1.81.65.69,1.13,1.27,1.42,1.76h.29v-15.14h5.59v37.24h-5.59v-3.87h-.29c-.29.49-.77,1.08-1.42,1.76-.65.69-1.53,1.29-2.62,1.81-1.1.52-2.46.78-4.09.78ZM419.54,281.37c1.6,0,2.93-.43,3.99-1.3,1.06-.87,1.86-1.97,2.4-3.31.54-1.34.81-2.74.81-4.21s-.27-2.87-.81-4.21c-.54-1.34-1.34-2.44-2.4-3.31-1.06-.87-2.39-1.3-3.99-1.3s-2.94.43-4.02,1.3c-1.08.87-1.89,1.97-2.43,3.31-.54,1.34-.81,2.74-.81,4.21s.27,2.88.81,4.21c.54,1.34,1.35,2.44,2.43,3.31,1.08.87,2.42,1.3,4.02,1.3Z"/><path class="cls-1" d="M447.65,286.03c-2.61,0-4.66-.82-6.12-2.45-1.47-1.63-2.21-3.81-2.21-6.52v-17.49h5.59v16.81c0,1.57.42,2.79,1.25,3.65.83.87,1.97,1.3,3.41,1.3s2.53-.36,3.38-1.08c.85-.72,1.46-1.64,1.84-2.77.38-1.13.56-2.29.56-3.5v-14.41h5.59v25.97h-5.59v-3.72h-.29c-.26.49-.68,1.07-1.25,1.74-.57.67-1.36,1.25-2.35,1.74-1,.49-2.26.74-3.8.74Z"/><path class="cls-1" d="M476.05,286.03c-2.61,0-4.66-.82-6.12-2.45-1.47-1.63-2.21-3.81-2.21-6.52v-17.49h5.59v16.81c0,1.57.42,2.79,1.25,3.65.83.87,1.97,1.3,3.41,1.3s2.53-.36,3.38-1.08c.85-.72,1.46-1.64,1.84-2.77.38-1.13.56-2.29.56-3.5v-14.41h5.59v25.97h-5.59v-3.72h-.29c-.26.49-.68,1.07-1.25,1.74-.57.67-1.36,1.25-2.35,1.74-1,.49-2.26.74-3.8.74Z"/><path class="cls-1" d="M496.16,285.54v-25.97h5.59v3.43h.2c.49-1.01,1.27-1.92,2.33-2.72,1.06-.8,2.6-1.2,4.63-1.2.62,0,1.37.07,2.25.2v5.39c-.98-.13-1.78-.2-2.4-.2-2.29,0-4.03.65-5.22,1.94-1.19,1.29-1.79,3.37-1.79,6.25v12.89h-5.59Z"/><path class="cls-1" d="M514.79,285.54v-3.87l14.5-17.59h-13.82v-4.51h20.58v3.87l-14.5,17.59h14.5v4.51h-21.27Z"/><path class="cls-1" d="M551.07,259.08c1.63,0,3,.26,4.09.78,1.09.52,1.97,1.13,2.62,1.81.65.69,1.13,1.27,1.42,1.76h.29v-3.87h5.59v25.97h-5.59v-3.87h-.29c-.29.49-.77,1.08-1.42,1.76-.65.69-1.53,1.29-2.62,1.81-1.1.52-2.46.78-4.09.78-1.96,0-3.67-.38-5.12-1.15-1.45-.77-2.67-1.8-3.65-3.09-.98-1.29-1.71-2.74-2.18-4.34-.47-1.6-.71-3.23-.71-4.9s.24-3.3.71-4.9c.47-1.6,1.2-3.05,2.18-4.34.98-1.29,2.2-2.32,3.65-3.09,1.45-.77,3.16-1.15,5.12-1.15ZM552.3,263.74c-1.6,0-2.94.43-4.02,1.3-1.08.87-1.89,1.97-2.43,3.31-.54,1.34-.81,2.74-.81,4.21s.27,2.88.81,4.21c.54,1.34,1.35,2.44,2.43,3.31,1.08.87,2.42,1.3,4.02,1.3s2.93-.43,3.99-1.3c1.06-.87,1.86-1.97,2.4-3.31.54-1.34.81-2.74.81-4.21s-.27-2.87-.81-4.21c-.54-1.34-1.34-2.44-2.4-3.31-1.06-.87-2.39-1.3-3.99-1.3Z"/><path class="cls-1" d="M571.89,285.54v-25.97h5.59v3.67h.2c.29-.52.73-1.11,1.3-1.76.57-.65,1.33-1.22,2.28-1.69s2.14-.71,3.58-.71c1.93,0,3.53.46,4.8,1.37,1.27.92,2.22,2.12,2.84,3.63h.1c.69-1.31,1.68-2.47,2.99-3.48,1.31-1.01,3.04-1.52,5.19-1.52,1.83,0,3.38.43,4.66,1.3s2.23,2.03,2.87,3.48c.64,1.45.96,3.1.96,4.92v16.76h-5.59v-15.97c0-1.7-.41-3.09-1.23-4.17s-2.03-1.62-3.63-1.62c-1.31,0-2.36.36-3.16,1.08-.8.72-1.38,1.61-1.74,2.67-.36,1.06-.54,2.13-.54,3.21v14.8h-5.59v-15.97c0-1.7-.41-3.09-1.23-4.17s-2.03-1.62-3.63-1.62c-1.31,0-2.36.36-3.16,1.08-.8.72-1.38,1.61-1.74,2.67-.36,1.06-.54,2.13-.54,3.21v14.8h-5.59Z"/><path class="cls-1" d="M627.66,286.03c-2.19,0-4.08-.38-5.66-1.15-1.58-.77-2.89-1.8-3.92-3.09-1.03-1.29-1.8-2.74-2.3-4.34-.51-1.6-.76-3.23-.76-4.9s.25-3.25.74-4.85c.49-1.6,1.24-3.05,2.25-4.36,1.01-1.31,2.3-2.34,3.87-3.11,1.57-.77,3.41-1.15,5.54-1.15,2.29,0,4.3.51,6.05,1.54,1.75,1.03,3.12,2.55,4.12,4.56,1,2.01,1.49,4.5,1.49,7.47v1.52h-18.42c.13,1.99.8,3.71,2.01,5.15,1.21,1.44,2.88,2.16,5,2.16,1.21,0,2.21-.2,2.99-.61.78-.41,1.39-.87,1.81-1.4.42-.52.82-1.18,1.18-1.96h5.19c-.33,1.14-.71,2.14-1.15,2.99-.44.85-1.07,1.7-1.89,2.55-.82.85-1.9,1.56-3.23,2.13-1.34.57-2.97.86-4.9.86ZM620.7,270.25h12.99c-.13-2.29-.81-3.97-2.03-5.05-1.23-1.08-2.65-1.62-4.29-1.62-1.83,0-3.35.6-4.56,1.79-1.21,1.19-1.91,2.82-2.11,4.88Z"/><path class="cls-1" d="M656.37,285.54v-25.97h5.59v3.43h.2c.49-1.01,1.27-1.92,2.33-2.72,1.06-.8,2.6-1.2,4.63-1.2.62,0,1.37.07,2.25.2v5.39c-.98-.13-1.78-.2-2.4-.2-2.29,0-4.03.65-5.22,1.94-1.19,1.29-1.79,3.37-1.79,6.25v12.89h-5.59Z"/><path class="cls-1" d="M687.46,286.03c-2.19,0-4.08-.38-5.66-1.15-1.58-.77-2.89-1.8-3.92-3.09-1.03-1.29-1.8-2.74-2.3-4.34-.51-1.6-.76-3.23-.76-4.9s.25-3.25.74-4.85c.49-1.6,1.24-3.05,2.25-4.36,1.01-1.31,2.3-2.34,3.87-3.11,1.57-.77,3.41-1.15,5.54-1.15,2.29,0,4.3.51,6.05,1.54,1.75,1.03,3.12,2.55,4.12,4.56,1,2.01,1.49,4.5,1.49,7.47v1.52h-18.42c.13,1.99.8,3.71,2.01,5.15,1.21,1.44,2.88,2.16,5,2.16,1.21,0,2.21-.2,2.99-.61.78-.41,1.39-.87,1.81-1.4.42-.52.82-1.18,1.18-1.96h5.19c-.33,1.14-.71,2.14-1.15,2.99-.44.85-1.07,1.7-1.89,2.55-.82.85-1.9,1.56-3.23,2.13-1.34.57-2.97.86-4.9.86ZM680.51,270.25h12.99c-.13-2.29-.81-3.97-2.03-5.05-1.23-1.08-2.65-1.62-4.29-1.62-1.83,0-3.35.6-4.56,1.79-1.21,1.19-1.91,2.82-2.11,4.88Z"/><path class="cls-1" d="M717.15,295.88c-2.25,0-4.12-.29-5.59-.88-1.47-.59-2.65-1.32-3.53-2.18-.88-.87-1.54-1.73-1.96-2.6-.42-.87-.77-1.89-1.03-3.06h5.54c.26.82.61,1.49,1.05,2.03.44.54,1.1,1.01,1.98,1.42s2.04.61,3.48.61c1.7,0,3.06-.33,4.09-1,1.03-.67,1.76-1.55,2.21-2.65s.66-2.28.66-3.55v-2.94h-.25c-.36.56-.87,1.17-1.54,1.84-.67.67-1.56,1.25-2.67,1.74s-2.45.73-4.02.73c-1.96,0-3.67-.38-5.12-1.13-1.45-.75-2.66-1.75-3.63-3.01-.96-1.26-1.69-2.67-2.18-4.24-.49-1.57-.74-3.17-.74-4.8s.25-3.23.74-4.78c.49-1.55,1.22-2.96,2.18-4.21.96-1.26,2.17-2.26,3.63-3.01,1.45-.75,3.16-1.13,5.12-1.13,1.57,0,2.91.24,4.02.71s2.01,1.04,2.7,1.71,1.19,1.3,1.52,1.89h.25v-3.82h5.59v24.4c0,2.32-.47,4.38-1.42,6.17-.95,1.8-2.35,3.2-4.21,4.21-1.86,1.01-4.15,1.52-6.86,1.52ZM716.86,280.79c1.6,0,2.94-.42,4.02-1.25s1.88-1.9,2.4-3.21c.52-1.31.78-2.68.78-4.12s-.26-2.81-.78-4.12c-.52-1.31-1.32-2.37-2.4-3.18s-2.42-1.22-4.02-1.22-2.99.41-4.07,1.22-1.88,1.88-2.4,3.18c-.52,1.31-.78,2.68-.78,4.12s.26,2.81.78,4.12,1.32,2.38,2.4,3.21,2.43,1.25,4.07,1.25Z"/><path class="cls-1" d="M739.56,255.11c-1.01,0-1.85-.34-2.5-1.03s-.98-1.49-.98-2.4.33-1.75.98-2.42,1.49-1,2.5-1,1.85.33,2.52,1c.67.67,1,1.48,1,2.42s-.34,1.76-1,2.43-1.51,1-2.52,1ZM736.81,285.54v-25.97h5.59v25.97h-5.59Z"/><path class="cls-1" d="M761.62,286.03c-2.84,0-5.24-.64-7.18-1.91-1.94-1.27-3.41-2.94-4.41-5s-1.49-4.25-1.49-6.57.5-4.51,1.49-6.57c1-2.06,2.47-3.72,4.41-5,1.94-1.27,4.34-1.91,7.18-1.91s5.19.64,7.13,1.91c1.94,1.27,3.41,2.94,4.41,5,1,2.06,1.5,4.25,1.5,6.57s-.5,4.51-1.5,6.57-2.47,3.72-4.41,5c-1.94,1.27-4.32,1.91-7.13,1.91ZM761.62,281.28c1.6,0,2.95-.41,4.04-1.23,1.09-.82,1.93-1.89,2.5-3.23.57-1.34.86-2.76.86-4.26s-.29-2.96-.86-4.29c-.57-1.32-1.41-2.39-2.5-3.21-1.1-.82-2.44-1.22-4.04-1.22s-2.96.41-4.07,1.22c-1.11.82-1.94,1.89-2.5,3.21s-.83,2.75-.83,4.29.28,2.92.83,4.26,1.39,2.42,2.5,3.23c1.11.82,2.47,1.23,4.07,1.23Z"/><path class="cls-1" d="M782.92,286.03c-1.01,0-1.85-.35-2.52-1.05-.67-.7-1-1.53-1-2.47s.33-1.81,1-2.5c.67-.69,1.51-1.03,2.52-1.03s1.85.34,2.52,1.03c.67.69,1,1.52,1,2.5s-.33,1.81-1,2.5c-.67.69-1.51,1.03-2.52,1.03Z"/></g></svg>